<?xml version="1.0" encoding="utf-8"?>
<!-- Generator: Adobe Illustrator 19.0.0, SVG Export Plug-In . SVG Version: 6.00 Build 0)  -->
<svg version="1.1" id="Layer_1" xmlns="http://www.w3.org/2000/svg" xmlns:xlink="http://www.w3.org/1999/xlink" x="0px" y="0px"
	 viewBox="0 0 586.3 114" style="enable-background:new 0 0 586.3 114;" xml:space="preserve">
<style type="text/css">
	.st0{fill:#FFFFFF;}
	.st1{fill:#369E47;}
	.st2{fill:#39B54A;}
	.st3{fill:#FCFAFC;}
</style>
<g id="XMLID_1_">
	<g id="XMLID_235_">
		<path id="XMLID_255_" class="st0" d="M21.7,80.7c0,0.4-0.1,0.9-0.2,1.5s-0.5,1.2-1,1.7c-0.5,0.5-1.3,1-2.3,1.4
			c-1,0.4-2.4,0.6-4.1,0.6c-1.7,0-3.1-0.2-4.1-0.6c-1-0.4-1.7-0.9-2.2-1.4c-0.5-0.6-0.8-1.1-0.9-1.7c-0.1-0.6-0.2-1.1-0.2-1.4V42.8
			c0-0.9-0.2-1.8-0.7-2.5c-0.4-0.7-1.2-1.1-2.2-1.1c-0.6,0-1,0.1-1.4,0.3c-0.4,0.2-0.8,0.5-1.3,0.8l-1-1.2c0.8-0.6,1.6-1.2,2.5-1.8
			c0.9-0.6,1.9-1.1,3-1.6c1.1-0.5,2.2-0.8,3.5-1.1c1.2-0.3,2.5-0.4,3.9-0.4c2.1,0,3.8,0.3,5,0.9c1.2,0.6,2,1.3,2.6,2.1
			c0.6,0.8,0.9,1.7,1,2.7c0.1,0.9,0.2,1.8,0.2,2.5V80.7z"/>
		<path id="XMLID_253_" class="st0" d="M62.9,60.7c0-4.1-0.2-7.4-0.6-9.9c-0.4-2.5-0.9-4.3-1.5-5.6c-0.6-1.3-1.3-2.1-2.1-2.5
			C58,42.2,57.2,42,56.4,42c-0.9,0-1.8,0.3-2.5,0.8c-0.7,0.5-1.4,1.1-1.9,1.7c-0.5,0.7-1,1.3-1.4,2c-0.4,0.7-0.7,1.1-1,1.5v32.7
			c0,0.4-0.1,0.9-0.2,1.5c-0.1,0.6-0.4,1.2-1,1.7c-0.5,0.5-1.3,1-2.3,1.4c-1,0.4-2.4,0.6-4.1,0.6c-1.7,0-3.1-0.2-4.1-0.6
			c-1-0.4-1.8-0.9-2.3-1.4c-0.5-0.6-0.9-1.1-1-1.7c-0.1-0.6-0.2-1.1-0.2-1.4V42.8c0-0.9-0.2-1.8-0.7-2.5c-0.4-0.7-1.2-1.1-2.2-1.1
			c-0.6,0-1,0.1-1.4,0.3c-0.4,0.2-0.8,0.5-1.3,0.8l-1-1.2c0.8-0.6,1.6-1.2,2.5-1.8c0.9-0.6,1.9-1.1,3-1.6c1.1-0.5,2.2-0.8,3.5-1.1
			c1.2-0.3,2.5-0.4,3.9-0.4c2.1,0,3.8,0.4,5,1.1c1.2,0.7,2,1.5,2.6,2.5c0.6,1,0.9,2,1,3.1c0.1,1.1,0.2,2,0.2,2.7
			c1.2-1.7,2.6-3.3,4.1-4.7c0.6-0.6,1.3-1.2,2.1-1.7c0.8-0.6,1.6-1.1,2.5-1.5c0.9-0.4,1.8-0.8,2.7-1.1c1-0.3,2-0.4,3-0.4
			c2.2,0,4.2,0.4,5.9,1.3c1.7,0.9,3.2,2.3,4.3,4.3c1.2,2,2.1,4.6,2.7,7.9c0.6,3.3,0.9,7.4,0.9,12.2c0,4.7-0.4,8.9-1.3,12.4
			c-0.9,3.5-2,6.5-3.3,8.9c-1.4,2.5-2.9,4.5-4.7,6c-1.7,1.6-3.5,2.8-5.2,3.7c-1.8,0.9-3.5,1.5-5.1,1.8c-1.6,0.3-3,0.5-4.2,0.6
			l-0.5-2c1-0.2,1.9-0.6,2.7-1.1c0.8-0.5,1.6-1.2,2.3-2.2c0.7-0.9,1.3-2.1,1.8-3.6c0.5-1.5,1-3.3,1.3-5.5c0.4-2.2,0.7-4.8,0.8-7.8
			C62.8,68.1,62.9,64.6,62.9,60.7z"/>
		<path id="XMLID_250_" class="st0" d="M88.6,42.8c0-0.9-0.2-1.8-0.7-2.5c-0.4-0.7-1.2-1.1-2.2-1.1c-0.6,0-1,0.1-1.4,0.3
			c-0.4,0.2-0.8,0.5-1.3,0.8l-1-1.2c0.8-0.6,1.6-1.2,2.5-1.8c0.9-0.6,1.9-1.1,3-1.6c1.1-0.5,2.2-0.8,3.5-1.1
			c1.2-0.3,2.5-0.4,3.9-0.4c1.5,0,2.7,0.2,3.8,0.7c1,0.5,1.9,1,2.6,1.6c0.7,0.6,1.2,1.3,1.6,2c0.4,0.7,0.6,1.3,0.6,1.8
			c0.7-0.9,1.4-1.7,2.3-2.5c0.9-0.8,1.9-1.4,2.9-1.9c1.1-0.5,2.2-1,3.4-1.2c1.2-0.3,2.4-0.4,3.7-0.4c2.6,0,5,0.5,7.1,1.6
			c2.1,1.1,3.9,2.7,5.5,4.8c1.5,2.1,2.7,4.8,3.5,7.9c0.8,3.1,1.2,6.8,1.2,10.9c0,4.8-0.5,8.8-1.5,12.2c-1,3.4-2.3,6.1-3.9,8.2
			c-1.6,2.1-3.5,3.7-5.5,4.6c-2.1,1-4.2,1.4-6.3,1.4c-1.8,0-3.4-0.2-4.7-0.5c-1.4-0.4-2.5-0.8-3.5-1.3c-1-0.5-1.8-1.1-2.5-1.6
			c-0.7-0.5-1.2-1-1.6-1.3V105c0,0.4-0.1,0.9-0.2,1.5c-0.1,0.6-0.4,1.2-1,1.7c-0.5,0.5-1.3,1-2.3,1.4c-1,0.4-2.4,0.6-4.1,0.6
			c-1.7,0-3.1-0.2-4.1-0.6c-1-0.4-1.8-0.9-2.3-1.5c-0.5-0.6-0.9-1.1-1-1.7c-0.1-0.6-0.2-1-0.2-1.4V42.8z M103.7,74
			c0,0.3,0.1,0.7,0.3,1.4c0.2,0.7,0.6,1.3,1.1,2c0.5,0.7,1.1,1.3,1.9,1.8c0.8,0.5,1.7,0.8,2.8,0.8c1.4,0,2.7-0.5,3.7-1.6
			c1-1.1,1.8-2.6,2.5-4.5s1.1-4.1,1.4-6.6c0.3-2.5,0.4-5.2,0.4-8c0-3.5-0.2-6.5-0.6-8.9c-0.4-2.4-0.9-4.4-1.6-5.9
			c-0.7-1.5-1.6-2.6-2.6-3.2c-1-0.7-2.1-1-3.4-1c-0.7,0-1.4,0.2-2.2,0.6c-0.7,0.4-1.4,0.9-1.9,1.5c-0.6,0.6-1,1.3-1.4,2
			c-0.4,0.8-0.5,1.5-0.5,2.2V74z"/>
		<path id="XMLID_248_" class="st0" d="M157.7,80.8c0,0.4-0.1,0.9-0.2,1.5c-0.1,0.6-0.5,1.1-1,1.7c-0.5,0.5-1.3,1-2.4,1.3
			c-1,0.4-2.4,0.6-4.1,0.6s-3.1-0.2-4.1-0.6c-1-0.4-1.7-0.9-2.2-1.4c-0.5-0.6-0.8-1.1-0.9-1.7c-0.1-0.6-0.2-1.1-0.2-1.4V17.4
			c0-0.9-0.2-1.8-0.7-2.5c-0.4-0.7-1.2-1.1-2.2-1.1c-0.6,0-1,0.1-1.4,0.3c-0.4,0.2-0.8,0.4-1.3,0.8l-1-1.2c0.8-0.6,1.6-1.2,2.5-1.8
			c0.9-0.6,1.9-1.1,3-1.6c1.1-0.5,2.3-0.8,3.5-1.1s2.5-0.4,3.9-0.4c2.1,0,3.8,0.3,5,0.9c1.2,0.6,2,1.3,2.6,2.1
			c0.6,0.8,0.9,1.7,1,2.6c0.1,0.9,0.2,1.8,0.2,2.5V80.8z"/>
		<path id="XMLID_245_" class="st0" d="M184.3,38.2c-1.1,0-2.1,0.1-3.1,0.4c-0.9,0.3-1.8,0.6-2.5,1c-0.7,0.4-1.2,0.8-1.6,1.3
			c-0.4,0.5-0.6,0.9-0.6,1.3c0,0.5,0.3,0.8,0.8,1.1c0.5,0.2,1.1,0.5,1.7,0.7c0.6,0.3,1.2,0.7,1.7,1.2c0.5,0.5,0.8,1.3,0.8,2.3
			c0,0.7-0.1,1.3-0.4,1.9c-0.3,0.6-0.7,1.1-1.1,1.5c-0.5,0.4-1,0.8-1.7,1c-0.6,0.2-1.3,0.4-2,0.4c-1.8,0-3.3-0.6-4.4-1.9
			c-1.1-1.2-1.7-2.9-1.7-5c0-2,0.5-3.7,1.6-5.1c1-1.4,2.4-2.6,4.1-3.5c1.7-0.9,3.6-1.6,5.7-2c2.1-0.4,4.2-0.7,6.4-0.7
			c2.5,0,5,0.3,7.3,0.8c2.3,0.6,4.4,1.4,6.2,2.6c1.8,1.2,3.2,2.7,4.3,4.6c1.1,1.9,1.6,4.1,1.6,6.8v27.7c0,0.3,0,0.6,0,1
			c0,0.4,0.1,0.7,0.2,1c0.1,0.3,0.3,0.5,0.6,0.7c0.3,0.2,0.6,0.3,1.1,0.3c0.6,0,1.1-0.2,1.6-0.7c0.5-0.4,1-0.9,1.3-1.3l1.2,1
			c-0.5,0.7-1.1,1.4-1.8,2.3c-0.7,0.8-1.5,1.6-2.5,2.3c-1,0.7-2.1,1.3-3.4,1.8s-2.8,0.7-4.5,0.7c-2.1,0-3.9-0.6-5.5-1.8
			s-2.6-3.1-3.1-5.7c-1,1.4-2.1,2.6-3.3,3.5c-1.1,0.9-2.3,1.7-3.5,2.3c-1.2,0.6-2.4,1-3.6,1.3c-1.2,0.3-2.4,0.4-3.6,0.4
			c-1.6,0-3.1-0.2-4.6-0.7c-1.5-0.5-2.8-1.3-3.9-2.3c-1.2-1.1-2.1-2.4-2.8-4.1c-0.7-1.7-1.1-3.8-1.1-6.2c0-3,0.6-5.4,1.8-7.3
			c1.2-1.9,2.7-3.5,4.6-4.8c1.9-1.3,4.1-2.4,6.5-3.3c2.4-0.9,4.9-1.9,7.5-2.9c1.9-0.8,3.3-1.9,4.1-3.4c0.9-1.5,1.3-3,1.3-4.6
			c0-2.4-0.7-4.4-2.1-5.8C188.7,38.9,186.8,38.2,184.3,38.2z M192.1,59.7c0-0.8-0.3-1.4-0.8-1.9s-1.2-0.6-2-0.6
			c-1.1,0-2.2,0.3-3.3,0.8c-1,0.5-1.9,1.3-2.7,2.3c-0.8,1-1.4,2.3-1.9,3.7c-0.5,1.5-0.7,3.2-0.7,5.2c0,1.9,0.1,3.5,0.4,4.7
			c0.3,1.2,0.7,2.2,1.1,3c0.5,0.7,1,1.2,1.6,1.5c0.6,0.3,1.3,0.4,2,0.4c0.8,0,1.7-0.2,2.4-0.7s1.4-1,2-1.7c0.6-0.7,1-1.5,1.3-2.3
			c0.3-0.8,0.5-1.7,0.5-2.5V59.7z"/>
		<path id="XMLID_243_" class="st0" d="M259.1,41.9c0,6-0.6,11.8-1.7,17.3c-1.2,5.6-2.8,10.8-4.8,15.7c-2,4.9-4.5,9.3-7.3,13.4
			c-2.8,4-5.9,7.5-9.2,10.4c-3.3,2.9-6.8,5.1-10.5,6.7c-3.7,1.6-7.4,2.4-11.2,2.4c-2.9,0-5.1-0.5-6.7-1.4c-1.6-1-2.4-2.3-2.4-3.9
			c0-0.6,0.1-1.2,0.3-1.8c0.2-0.6,0.5-1.1,0.8-1.6c0.3-0.5,0.7-0.8,1.2-1.1c0.5-0.3,0.9-0.4,1.5-0.4c0.6,0,1.1,0.3,1.5,0.9
			c0.4,0.6,0.8,1.3,1.3,2c0.5,0.7,1,1.4,1.7,2c0.7,0.6,1.6,0.9,2.7,0.9c1.5,0,3-0.3,4.6-0.8c1.6-0.5,3.2-1.2,4.8-2.2
			c1.6-0.9,3.2-2.1,4.9-3.5c1.6-1.4,3.2-2.9,4.8-4.5c-0.9-3.3-2-6.9-3.2-10.8c-1.2-3.9-2.5-7.8-3.8-11.8c-1.3-4-2.7-7.8-4.1-11.4
			c-1.4-3.7-2.7-6.9-4.1-9.8c-1.3-2.8-2.6-5.1-3.8-6.8c-1.2-1.7-2.3-2.6-3.3-2.6c-0.6,0-1.1,0.1-1.4,0.3c-0.3,0.2-0.7,0.5-1.2,0.8
			l-1-1.2c0.7-0.6,1.3-1.1,2.1-1.7c0.7-0.6,1.6-1.1,2.5-1.6c1-0.5,2.1-0.9,3.4-1.2c1.3-0.3,2.9-0.5,4.7-0.5c2,0,3.9,0.4,5.6,1.3
			c1.7,0.9,3.3,2.6,4.7,5c1,1.8,2.1,4,3.2,6.5c1.1,2.5,2.2,5.3,3.3,8.4c1.1,3.1,2.2,6.5,3.4,10.1c1.1,3.6,2.3,7.4,3.4,11.3
			c2-4.2,3.7-8.8,4.9-13.5c1.2-4.8,1.9-9.6,1.9-14.7c0-1.8-0.1-3.3-0.3-4.6c-0.2-1.3-0.5-2.4-0.8-3.3c-0.3-0.9-0.6-1.7-0.8-2.3
			s-0.3-1.2-0.3-1.7c0-0.5,0.2-0.9,0.6-1.3c0.4-0.3,0.9-0.6,1.4-0.8c0.6-0.2,1.1-0.3,1.7-0.4c0.6-0.1,1.1-0.1,1.4-0.1
			c0.9,0,1.6,0.2,2,0.5c0.5,0.4,0.8,0.9,1.1,1.5c0.2,0.7,0.4,1.5,0.4,2.4C259.1,39.6,259.1,40.7,259.1,41.9z"/>
		<path id="XMLID_241_" class="st0" d="M297.1,60.7c0-4.1-0.2-7.4-0.6-9.9c-0.4-2.5-0.9-4.3-1.5-5.6c-0.6-1.3-1.3-2.1-2.1-2.5
			c-0.8-0.4-1.5-0.6-2.3-0.6c-0.9,0-1.8,0.3-2.5,0.8c-0.7,0.5-1.4,1.1-1.9,1.7c-0.5,0.7-1,1.3-1.4,2c-0.4,0.7-0.7,1.1-1,1.5v32.7
			c0,0.4-0.1,0.9-0.2,1.5c-0.1,0.6-0.4,1.2-1,1.7c-0.5,0.5-1.3,1-2.3,1.4c-1,0.4-2.4,0.6-4.1,0.6c-1.7,0-3.1-0.2-4.1-0.6
			c-1-0.4-1.8-0.9-2.3-1.4c-0.5-0.6-0.8-1.1-1-1.7c-0.1-0.6-0.2-1.1-0.2-1.4V42.8c0-0.9-0.2-1.8-0.7-2.5c-0.4-0.7-1.2-1.1-2.2-1.1
			c-0.6,0-1,0.1-1.4,0.3c-0.4,0.2-0.8,0.5-1.3,0.8l-1-1.2c0.8-0.6,1.6-1.2,2.5-1.8c0.9-0.6,1.9-1.1,3-1.6c1.1-0.5,2.2-0.8,3.5-1.1
			c1.2-0.3,2.5-0.4,3.9-0.4c2.1,0,3.8,0.4,5,1.1c1.2,0.7,2,1.5,2.6,2.5c0.6,1,0.9,2,1,3.1c0.1,1.1,0.2,2,0.2,2.7
			c1.2-1.7,2.6-3.3,4.1-4.7c0.6-0.6,1.3-1.2,2.1-1.7c0.8-0.6,1.6-1.1,2.5-1.5c0.9-0.4,1.8-0.8,2.7-1.1c1-0.3,2-0.4,3-0.4
			c2.2,0,4.2,0.4,5.9,1.3c1.7,0.9,3.2,2.3,4.3,4.3c1.2,2,2.1,4.6,2.7,7.9c0.6,3.3,0.9,7.4,0.9,12.2c0,4.7-0.4,8.9-1.3,12.4
			c-0.9,3.5-2,6.5-3.3,8.9c-1.4,2.5-2.9,4.5-4.7,6c-1.7,1.6-3.5,2.8-5.2,3.7c-1.8,0.9-3.5,1.5-5.1,1.8c-1.6,0.3-3,0.5-4.2,0.6
			l-0.5-2c1-0.2,1.9-0.6,2.7-1.1c0.8-0.5,1.6-1.2,2.3-2.2c0.7-0.9,1.3-2.1,1.8-3.6c0.5-1.5,1-3.3,1.3-5.5c0.4-2.2,0.7-4.8,0.8-7.8
			C297,68.1,297.1,64.6,297.1,60.7z"/>
		<path id="XMLID_238_" class="st0" d="M334.9,62.6c0,1,0.2,2.2,0.5,3.4c0.3,1.2,0.8,2.5,1.3,3.7c0.6,1.2,1.3,2.4,2.2,3.6
			c0.9,1.1,1.9,2.1,3,3c1.1,0.9,2.4,1.6,3.8,2.1c1.4,0.5,2.9,0.8,4.5,0.8c1.1,0,2.2-0.1,3.2-0.4c1-0.3,1.9-0.6,2.7-1.1
			c0.8-0.5,1.7-1,2.5-1.6c0.8-0.6,1.6-1.2,2.4-1.9l1.2,1.2c-0.8,1-1.7,2.1-2.9,3.3c-1.2,1.2-2.6,2.3-4.3,3.4
			c-1.7,1.1-3.6,1.9-5.8,2.6c-2.2,0.7-4.8,1.1-7.6,1.1c-2.8,0-5.6-0.5-8.3-1.5c-2.7-1-5.1-2.6-7.2-4.6c-2.1-2.1-3.8-4.6-5-7.7
			c-1.3-3.1-1.9-6.7-1.9-10.8c0-3,0.4-5.7,1.1-8.2c0.8-2.5,1.8-4.7,3.1-6.7c1.3-2,2.8-3.7,4.5-5.2c1.7-1.5,3.5-2.8,5.4-3.8
			c1.9-1,3.8-1.7,5.8-2.3c2-0.5,3.9-0.8,5.7-0.8c2.4,0,4.5,0.3,6.3,0.8c1.8,0.5,3.3,1.2,4.5,2.1c1.2,0.9,2.1,1.9,2.7,3.1
			c0.6,1.2,0.9,2.4,0.9,3.7c0,1.5-0.4,2.9-1.3,4.1s-2.1,2.3-3.5,3.2L334.9,62.6z M344.8,52.6c0.4-0.3,0.8-0.5,1.1-0.8
			c0.3-0.2,0.5-0.5,0.7-0.9c0.2-0.3,0.3-0.8,0.4-1.3c0.1-0.5,0.1-1.1,0.1-1.9c0-0.8-0.1-1.7-0.3-2.7c-0.2-1-0.5-1.9-0.9-2.8
			s-1-1.6-1.6-2.2c-0.7-0.6-1.4-0.9-2.4-0.9c-1.2,0-2.2,0.4-3,1.1c-0.8,0.7-1.5,1.6-2.1,2.7c-0.5,1.1-1,2.4-1.3,3.8
			c-0.3,1.4-0.5,2.9-0.7,4.3c-0.2,1.4-0.3,2.8-0.3,4.1c0,1.3,0,2.4,0,3.4L344.8,52.6z"/>
		<path id="XMLID_236_" class="st0" d="M384.7,38.4v36.2c0,1.7,0.3,2.9,1,3.6c0.7,0.7,1.6,1,2.7,1c0.9,0,1.7-0.2,2.4-0.7
			c0.7-0.5,1.3-1,1.8-1.7c0.6-0.7,1.1-1.5,1.5-2.4l1.5,0.7c-0.5,1-1.1,2.2-1.7,3.4c-0.7,1.2-1.6,2.4-2.7,3.5c-1.1,1.1-2.5,2-4.2,2.7
			c-1.7,0.7-3.8,1.1-6.3,1.1c-1.4,0-2.8-0.2-4.1-0.6c-1.3-0.4-2.5-1.1-3.5-2c-1-0.9-1.9-2.1-2.5-3.4c-0.6-1.4-0.9-3-0.9-5V38.4H364
			v-3.5c0.9,0,2.2-0.2,3.8-0.7c1.6-0.5,3.3-1.3,5-2.4c1.7-1.1,3.3-2.6,4.8-4.5c1.5-1.9,2.5-4.2,3.1-6.9h3.9v14.5h8
			c2.6,0,3.9-0.4,3.9-1.3c0-0.3-0.2-0.5-0.5-0.7c-0.3-0.1-0.7-0.3-1.1-0.4c-0.4-0.2-0.8-0.4-1.1-0.8c-0.3-0.3-0.5-0.9-0.5-1.6
			c0-0.9,0.3-1.6,0.9-2.2c0.6-0.5,1.3-0.8,2.2-0.8c0.6,0,1.1,0.1,1.5,0.4c0.4,0.2,0.8,0.6,1.1,1c0.3,0.4,0.5,0.9,0.7,1.4
			c0.1,0.5,0.2,1,0.2,1.6c0,2.1-0.6,3.8-1.8,5.1c-1.2,1.3-3.2,1.9-5.9,1.9H384.7z"/>
	</g>
</g>
<path id="XMLID_17_" class="st1" d="M9,4.3l15.8,10.8c1.4,1,1.4,2.8,0,3.8L9,29.8c-1.7,1.2-4.3,0.1-4.3-1.9V6.2
	C4.8,4.3,7.3,3.1,9,4.3z"/>
<path id="XMLID_30_" class="st2" d="M4.8,9.1v18.8c0,2,2.5,3.1,4.3,1.9l14-9.6L4.8,9.1z"/>
<g id="XMLID_77_">
	<path id="XMLID_93_" class="st3" d="M450.6,77.6v-38h10.6c3.1,0,5.9,0.7,8.4,2.1s4.4,3.5,5.8,6.1c1.4,2.6,2.1,5.7,2.1,9v3.5
		c0,3.4-0.7,6.4-2.1,9c-1.4,2.6-3.3,4.7-5.8,6.1c-2.5,1.4-5.4,2.1-8.6,2.1H450.6z M453.8,42.3v32.6h7.2c4,0,7.2-1.3,9.6-4
		c2.4-2.7,3.6-6.3,3.6-10.8v-3.3c0-4.4-1.2-7.9-3.6-10.5s-5.5-4-9.4-4H453.8z"/>
	<path id="XMLID_96_" class="st3" d="M495.9,78.1c-2.4,0-4.6-0.6-6.5-1.8c-1.9-1.2-3.5-2.8-4.5-4.9c-1.1-2.1-1.6-4.5-1.6-7.1v-1.1
		c0-2.7,0.5-5.2,1.6-7.3c1.1-2.2,2.5-3.9,4.4-5.1s3.9-1.9,6.1-1.9c3.4,0,6.1,1.2,8.2,3.5c2,2.3,3,5.5,3,9.6v1.7h-20.2v0.6
		c0,3.2,0.9,5.9,2.8,8c1.8,2.1,4.1,3.2,6.9,3.2c1.7,0,3.1-0.3,4.4-0.9c1.3-0.6,2.4-1.6,3.5-2.9l2,1.5
		C503.6,76.5,500.2,78.1,495.9,78.1z M495.3,51.5c-2.4,0-4.3,0.9-5.9,2.6c-1.6,1.7-2.6,4-2.9,6.9h16.9v-0.3
		c-0.1-2.7-0.9-4.9-2.3-6.6C499.6,52.3,497.7,51.5,495.3,51.5z"/>
	<path id="XMLID_99_" class="st3" d="M515.4,49.4l0.1,4.6c1-1.7,2.3-3,3.9-3.8c1.6-0.9,3.3-1.3,5.2-1.3c4.5,0,7.3,1.8,8.5,5.5
		c1-1.8,2.4-3.1,4-4.1s3.6-1.4,5.6-1.4c6.1,0,9.1,3.3,9.3,9.9v18.9h-3.1V59c0-2.5-0.6-4.4-1.6-5.6c-1.1-1.2-2.8-1.8-5.2-1.8
		c-2.2,0-4.1,0.8-5.7,2.2c-1.5,1.4-2.4,3.1-2.6,5.2v18.7h-3.1V58.8c0-2.4-0.6-4.2-1.7-5.4c-1.1-1.2-2.9-1.8-5.2-1.8
		c-2,0-3.7,0.6-5.1,1.7c-1.4,1.1-2.5,2.8-3.1,5v19.4h-3.1V49.4H515.4z"/>
	<path id="XMLID_101_" class="st3" d="M558.2,63.1c0-2.7,0.5-5.2,1.6-7.3c1.1-2.2,2.5-3.9,4.5-5.1c1.9-1.2,4.1-1.8,6.5-1.8
		c3.8,0,6.8,1.3,9.1,4s3.5,6.1,3.5,10.5v0.7c0,2.7-0.5,5.2-1.6,7.4c-1.1,2.2-2.5,3.9-4.5,5.1c-1.9,1.2-4.1,1.8-6.6,1.8
		c-3.7,0-6.8-1.3-9.1-4c-2.3-2.6-3.5-6.1-3.5-10.5V63.1z M561.4,63.9c0,3.4,0.9,6.1,2.6,8.3c1.8,2.2,4,3.3,6.9,3.3
		c2.8,0,5.1-1.1,6.9-3.3c1.8-2.2,2.6-5,2.6-8.6v-0.6c0-2.2-0.4-4.1-1.2-5.9c-0.8-1.8-1.9-3.2-3.4-4.2s-3.1-1.5-5-1.5
		c-2.8,0-5.1,1.1-6.8,3.3c-1.8,2.2-2.6,5-2.6,8.6V63.9z"/>
</g>
<g id="XMLID_78_">
	<path id="XMLID_104_" class="st3" d="M423.9,96.4h-3.2V21.3h3.2V96.4z"/>
</g>
</svg>
